<?xml version="1.0" standalone="no"?>
<!DOCTYPE svg PUBLIC "-//W3C//DTD SVG 20010904//EN"
 "http://www.w3.org/TR/2001/REC-SVG-20010904/DTD/svg10.dtd">
<svg version="1.0" xmlns="http://www.w3.org/2000/svg"
 width="225.000000pt" height="225.000000pt" viewBox="0 0 225.000000 225.000000"
 preserveAspectRatio="xMidYMid meet">

<g transform="translate(0.000000,225.000000) scale(0.100000,-0.100000)"
fill="#000000" stroke="none">
<path d="M90 1909 l0 -74 389 -350 c215 -192 390 -355 390 -360 1 -6 -174
-168 -389 -360 l-389 -350 -1 -74 0 -74 23 20 c302 274 908 834 908 838 1 5
-410 384 -908 838 l-23 20 0 -74z"/>
<path d="M1222 1908 l3 -74 375 -338 c206 -187 383 -346 393 -356 17 -16 -2
-34 -377 -371 l-396 -354 0 -74 0 -75 28 26 c15 14 218 199 452 413 234 213
433 395 443 404 16 16 -7 39 -419 416 -240 220 -452 413 -471 429 l-34 28 3
-74z"/>
</g>
</svg>
