<?xml version="1.0" standalone="no"?>
<!DOCTYPE svg PUBLIC "-//W3C//DTD SVG 20010904//EN"
 "http://www.w3.org/TR/2001/REC-SVG-20010904/DTD/svg10.dtd">
<svg version="1.0" xmlns="http://www.w3.org/2000/svg"
 width="225.000000pt" height="225.000000pt" viewBox="0 0 225.000000 225.000000"
 preserveAspectRatio="xMidYMid meet">

<g transform="translate(0.000000,225.000000) scale(0.100000,-0.100000)"
fill="#000000" stroke="none">
<path d="M565 1559 c-253 -231 -463 -424 -468 -428 -6 -6 773 -728 900 -835
l34 -28 -3 74 -3 74 -375 338 c-206 187 -383 346 -393 356 -17 16 2 34 377
371 l396 354 0 73 c0 39 -1 72 -3 72 -1 0 -209 -189 -462 -421z"/>
<path d="M1690 1554 c-256 -235 -463 -429 -462 -433 3 -4 554 -510 910 -834
l22 -20 0 74 0 74 -389 350 c-215 193 -390 355 -390 360 -1 6 174 168 389 360
l389 350 1 73 c0 39 -1 72 -3 72 -1 0 -212 -192 -467 -426z"/>
</g>
</svg>
